<svg aria-hidden="true" style="position: absolute; width: 0; height: 0; overflow: hidden;" version="1.1" xmlns="http://www.w3.org/2000/svg" xmlns:xlink="http://www.w3.org/1999/xlink">
<defs>
<symbol id="icon-github-fill" viewBox="0 0 32 32">
<path d="M16 2.987q-2.72 0-5.2 1.067-2.373 1.013-4.227 2.853t-2.867 4.24q-1.040 2.48-1.040 5.173 0 2.907 1.173 5.52 1.147 2.533 3.227 4.4t4.72 2.747q0.453 0.080 0.68-0.133t0.227-0.507v-2.48q-2.213 0.4-3.413-0.267-0.773-0.453-1.093-1.307-0.133-0.4-0.507-0.96-0.48-0.72-0.853-0.933-0.48-0.24-0.587-0.507-0.16-0.347 0.547-0.36t1.347 0.52q0.427 0.347 0.72 0.853 0.8 1.307 2.107 1.413 0.88 0.080 1.787-0.32 0.16-1.2 0.853-1.787-1.733-0.187-2.88-0.72-1.493-0.667-2.267-1.973-0.933-1.493-0.933-3.893 0-2.080 1.387-3.573-0.213-0.533-0.267-1.2-0.080-1.173 0.4-2.347l0.213-0.027q0.293 0 0.667 0.080 0.507 0.107 1.12 0.373 0.773 0.347 1.653 0.933 1.6-0.427 3.333-0.427t3.333 0.427q1.6-1.067 2.8-1.333 0.587-0.107 0.88-0.027v0q0.453 1.173 0.373 2.347-0.027 0.667-0.24 1.2 1.36 1.493 1.36 3.573 0 2.4-0.907 3.92-0.8 1.28-2.293 1.947-1.147 0.533-2.88 0.72 0.4 0.347 0.64 0.907 0.267 0.667 0.267 1.547l-0.027 3.68q0 0.32 0.227 0.52t0.68 0.12q2.693-0.907 4.76-2.8t3.2-4.453 1.133-5.413q0-2.693-1.040-5.173-1.013-2.4-2.867-4.24t-4.227-2.853q-2.48-1.067-5.2-1.067z"></path>
</symbol>
<symbol id="icon-mail-line" viewBox="0 0 32 32">
<path d="M4 4h24q0.56 0 0.947 0.387t0.387 0.947v21.333q0 0.56-0.387 0.947t-0.947 0.387h-24q-0.56 0-0.947-0.387t-0.387-0.947v-21.333q0-0.56 0.387-0.947t0.947-0.387zM26.667 9.653l-10.56 9.467-10.773-9.493v15.707h21.333v-15.68zM6.027 6.667l10.053 8.88 9.92-8.88h-19.973z"></path>
</symbol>
<symbol id="icon-linkedin-box-fill" viewBox="0 0 32 32">
<path d="M24.453 24.453h-3.573v-5.573q0-0.907-0.053-1.387-0.133-0.747-0.507-1.147-0.427-0.507-1.28-0.507-1.253 0-1.76 0.907-0.373 0.693-0.373 2.027v5.68h-3.547v-11.467h3.413v1.573h0.027q0.427-0.773 1.227-1.253 0.96-0.587 2.16-0.587 1.707 0 2.693 0.72 0.88 0.64 1.253 1.947 0.32 1.067 0.32 2.773v6.293zM9.333 11.44q-0.853 0-1.453-0.613t-0.6-1.467 0.6-1.453 1.453-0.6 1.467 0.6 0.613 1.453-0.613 1.467-1.467 0.613zM11.12 24.453h-3.573v-11.467h3.573v11.467zM26.213 4h-20.453q-0.72 0-1.24 0.507t-0.52 1.227v20.533q0 0.72 0.52 1.227t1.24 0.507h20.453q0.747 0 1.267-0.507t0.52-1.227v-20.533q0-0.72-0.52-1.227t-1.267-0.507v0z"></path>
</symbol>
</defs>
</svg>
