<svg aria-hidden="true" style="position: absolute; width: 0; height: 0; overflow: hidden;"
    version="1.1" xmlns="http://www.w3.org/2000/svg" xmlns:xlink="http://www.w3.org/1999/xlink">
    <defs>
        <symbol id="icon-gmail" viewBox="0 0 32 32">
            <path
                d="M26.667 5.333h-21.333c-1.471 0-2.667 1.196-2.667 2.667v16c0 1.471 1.196 2.667 2.667 2.667h21.333c1.471 0 2.667-1.196 2.667-2.667v-16c0-1.471-1.196-2.667-2.667-2.667zM26.667 8v0.681l-10.667 8.297-10.667-8.296v-0.683h21.333zM5.333 24v-11.941l9.848 7.66c0.24 0.188 0.529 0.281 0.819 0.281s0.579-0.093 0.819-0.281l9.848-7.66 0.003 11.941h-21.336z"></path>
        </symbol>
        <symbol id="icon-curriculum" viewBox="0 0 22 32">
            <path
                d="M0.084 21.627l-0.084-21.075v-0.115c0-0.001 0-0.002 0-0.003 0-0.238 0.193-0.431 0.431-0.431 0 0 0.001 0 0.001 0l21.298-0.004c0 0 0 0 0 0 0.306 0 0.553 0.248 0.554 0.553v31.016c0 0 0 0 0 0 0 0.238-0.193 0.431-0.431 0.431-0 0-0.001 0-0.001 0h-21.417c-0.24 0-0.435-0.195-0.435-0.435v0 0l0.084-9.938zM19.422 18.282v-2.195h-16.088c-0 0-0.001 0-0.001 0-0.238 0-0.431 0.193-0.431 0.431 0 0 0 0.001 0 0.001v-0 1.722c0 0.238 0.193 0.431 0.432 0.431v0q7.929 0 15.807 0.007c0.258 0 0.317-0.095 0.284-0.397zM12.88 20.613h-9.55c-0.238 0-0.431 0.193-0.431 0.431v0 1.731c0 0.238 0.193 0.431 0.431 0.431v0h16.070v-2.593h-6.52zM16.426 25.089h-13.097c-0.238 0-0.431 0.193-0.431 0.431v0 1.731c0 0.238 0.193 0.431 0.431 0.431v0h16.070v-2.594h-2.973zM20.103 4.79c0.058-0.117 0.116-0.236 0.186-0.377h-2.756c-0.507 1.19-1.001 2.369-1.516 3.586-0.572 1.414-0.307 1.177-0.799-0.008-0.471-1.182-0.92-2.308-1.376-3.431-0.043-0.080-0.12-0.137-0.211-0.151l-0.002-0c-0.936-0.010-1.87-0.007-2.806-0.007v0c-0.005 0.090-0.022 0.138-0.008 0.169 0.484 1.146 0.973 2.29 1.457 3.437q0.877 2.076 1.745 4.152c0.129 0.31 1.458 0.459 1.532 0.459s1.293-0.020 1.569-0.698c0.964-2.364 1.98-4.712 2.985-7.132zM10.893 11.118v0c0.006-0.052 0.036-0.131 0.014-0.152-0.556-0.518-1.116-1.029-1.71-1.572v0c-0.153 0.169-0.253 0.304-0.379 0.417-0.929 0.844-2.256 0.733-2.893-0.287-0.186-0.305-0.296-0.674-0.296-1.069 0-0.158 0.018-0.311 0.051-0.459l-0.003 0.014c0.125-0.658 0.448-1.22 1.182-1.419 0.815-0.223 1.52-0.046 2.099 0.565 0.204 0.214 0.338 0.258 0.575 0.020 0.454-0.458 0.952-0.873 1.482-1.351v0c-0.263-0.253-0.496-0.534-0.785-0.738-1.229-0.866-2.618-1.043-4.047-0.751-1.091 0.214-2.010 0.83-2.615 1.684l-0.009 0.013c-0.578 0.807-0.714 1.695-0.687 2.647 0.042 1.552 0.803 2.657 2.116 3.4 0.835 0.472 1.75 0.572 2.711 0.526 1.262-0.062 2.32-0.49 3.195-1.488z"></path>
        </symbol>
        <symbol id="icon-itchio" viewBox="0 0 32 32">
            <path
                d="M6.751 5.161c-1.129 0.671-3.355 3.225-3.375 3.895v1.108c0 1.409 1.316 2.642 2.512 2.642 1.435 0 2.627-1.191 2.627-2.601 0 1.41 1.155 2.601 2.59 2.601s2.549-1.191 2.549-2.601c0 1.41 1.227 2.601 2.663 2.601h0.026c1.436 0 2.663-1.191 2.663-2.601 0 1.41 1.118 2.601 2.549 2.601s2.59-1.191 2.59-2.601c0 1.41 1.196 2.601 2.626 2.601 1.196 0 2.512-1.238 2.512-2.642v-1.108c-0.021-0.671-2.247-3.23-3.375-3.901-3.516-0.12-5.95-0.14-9.58-0.14s-8.576 0.057-9.575 0.146zM13.632 12.151c-1.144 1.997-4.052 2.013-5.196 0.016-0.686 1.201-2.247 1.67-2.913 1.441-0.203 2.091-0.713 12.332 0.921 14.001 4.161 0.973 15.712 0.942 19.754 0 1.649-1.68 1.108-12.066 0.926-14.001-0.671 0.229-2.231-0.239-2.913-1.441-1.144 2.002-4.052 1.982-5.196-0.010-0.369 0.65-1.202 1.503-2.694 1.503-1.107 0.037-2.144-0.542-2.694-1.503l0.005-0.005zM11.468 14.95c0.858 0 1.618 0 2.559 1.030 1.525-0.155 3.062-0.155 4.587 0 0.947-1.030 1.711-1.030 2.564-1.030 2.72 0 3.391 4.031 4.364 7.515 0.9 3.235-0.286 3.313-1.768 3.313-2.195-0.083-3.407-1.675-3.407-3.266-2.044 0.333-5.3 0.458-8.093 0 0 1.592-1.212 3.183-3.407 3.266-1.477-0.005-2.663-0.083-1.763-3.313 0.973-3.485 1.643-7.515 4.364-7.515zM16.326 17.436c0 0-2.309 2.122-2.725 2.871l1.508-0.062v1.316c0 0.083 1.108 0.010 1.212 0.010 0.608 0.026 1.212 0.052 1.212-0.010v-1.316l1.508 0.062c-0.416-0.754-2.725-2.871-2.725-2.871h0.010z"></path>
        </symbol>
        <symbol id="icon-linkedin" viewBox="0 0 32 32">
            <path
                d="M24.453 24.453h-3.573v-5.573q0-0.907-0.053-1.387-0.133-0.747-0.507-1.147-0.427-0.507-1.28-0.507-1.253 0-1.76 0.907-0.373 0.693-0.373 2.027v5.68h-3.547v-11.467h3.413v1.573h0.027q0.427-0.773 1.227-1.253 0.96-0.587 2.16-0.587 1.707 0 2.693 0.72 0.88 0.64 1.253 1.947 0.32 1.067 0.32 2.773v6.293zM9.333 11.44q-0.853 0-1.453-0.613t-0.6-1.467 0.6-1.453 1.453-0.6 1.467 0.6 0.613 1.453-0.613 1.467-1.467 0.613zM11.12 24.453h-3.573v-11.467h3.573v11.467zM26.213 4h-20.453q-0.72 0-1.24 0.507t-0.52 1.227v20.533q0 0.72 0.52 1.227t1.24 0.507h20.453q0.747 0 1.267-0.507t0.52-1.227v-20.533q0-0.72-0.52-1.227t-1.267-0.507v0z"></path>
        </symbol>
        <symbol id="icon-github" viewBox="0 0 32 32">
            <path
                d="M16 2.987q-2.72 0-5.2 1.067-2.373 1.013-4.227 2.853t-2.867 4.24q-1.040 2.48-1.040 5.173 0 2.907 1.173 5.52 1.147 2.533 3.227 4.4t4.72 2.747q0.453 0.080 0.68-0.133t0.227-0.507v-2.48q-2.213 0.4-3.413-0.267-0.773-0.453-1.093-1.307-0.133-0.4-0.507-0.96-0.48-0.72-0.853-0.933-0.48-0.24-0.587-0.507-0.16-0.347 0.547-0.36t1.347 0.52q0.427 0.347 0.72 0.853 0.8 1.307 2.107 1.413 0.88 0.080 1.787-0.32 0.16-1.2 0.853-1.787-1.733-0.187-2.88-0.72-1.493-0.667-2.267-1.973-0.933-1.493-0.933-3.893 0-2.080 1.387-3.573-0.213-0.533-0.267-1.2-0.080-1.173 0.4-2.347l0.213-0.027q0.293 0 0.667 0.080 0.507 0.107 1.12 0.373 0.773 0.347 1.653 0.933 1.6-0.427 3.333-0.427t3.333 0.427q1.6-1.067 2.8-1.333 0.587-0.107 0.88-0.027v0q0.453 1.173 0.373 2.347-0.027 0.667-0.24 1.2 1.36 1.493 1.36 3.573 0 2.4-0.907 3.92-0.8 1.28-2.293 1.947-1.147 0.533-2.88 0.72 0.4 0.347 0.64 0.907 0.267 0.667 0.267 1.547l-0.027 3.68q0 0.32 0.227 0.52t0.68 0.12q2.693-0.907 4.76-2.8t3.2-4.453 1.133-5.413q0-2.693-1.040-5.173-1.013-2.4-2.867-4.24t-4.227-2.853q-2.48-1.067-5.2-1.067z"></path>
        </symbol>
    </defs>
</svg>