<svg aria-hidden="true" style="position: absolute; width: 0; height: 0; overflow: hidden;"
    version="1.1" xmlns="http://www.w3.org/2000/svg" xmlns:xlink="http://www.w3.org/1999/xlink">
    <defs>
        <symbol id="icon-gmail" viewBox="0 0 32 32">
            <path
                d="M26.667 5.333h-21.333c-1.471 0-2.667 1.196-2.667 2.667v16c0 1.471 1.196 2.667 2.667 2.667h21.333c1.471 0 2.667-1.196 2.667-2.667v-16c0-1.471-1.196-2.667-2.667-2.667zM26.667 8v0.681l-10.667 8.297-10.667-8.296v-0.683h21.333zM5.333 24v-11.941l9.848 7.66c0.24 0.188 0.529 0.281 0.819 0.281s0.579-0.093 0.819-0.281l9.848-7.66 0.003 11.941h-21.336z">
            </path>
        </symbol>
        <symbol id="icon-curriculum" viewBox="0 0 22 32">
            <path
                d="M0.084 21.627l-0.084-21.075v-0.115c0-0.001 0-0.002 0-0.003 0-0.238 0.193-0.431 0.431-0.431 0 0 0.001 0 0.001 0l21.298-0.004c0 0 0 0 0 0 0.306 0 0.553 0.248 0.554 0.553v31.016c0 0 0 0 0 0 0 0.238-0.193 0.431-0.431 0.431-0 0-0.001 0-0.001 0h-21.417c-0.24 0-0.435-0.195-0.435-0.435v0 0l0.084-9.938zM19.422 18.282v-2.195h-16.088c-0 0-0.001 0-0.001 0-0.238 0-0.431 0.193-0.431 0.431 0 0 0 0.001 0 0.001v-0 1.722c0 0.238 0.193 0.431 0.432 0.431v0q7.929 0 15.807 0.007c0.258 0 0.317-0.095 0.284-0.397zM12.88 20.613h-9.55c-0.238 0-0.431 0.193-0.431 0.431v0 1.731c0 0.238 0.193 0.431 0.431 0.431v0h16.070v-2.593h-6.52zM16.426 25.089h-13.097c-0.238 0-0.431 0.193-0.431 0.431v0 1.731c0 0.238 0.193 0.431 0.431 0.431v0h16.070v-2.594h-2.973zM20.103 4.79c0.058-0.117 0.116-0.236 0.186-0.377h-2.756c-0.507 1.19-1.001 2.369-1.516 3.586-0.572 1.414-0.307 1.177-0.799-0.008-0.471-1.182-0.92-2.308-1.376-3.431-0.043-0.080-0.12-0.137-0.211-0.151l-0.002-0c-0.936-0.010-1.87-0.007-2.806-0.007v0c-0.005 0.090-0.022 0.138-0.008 0.169 0.484 1.146 0.973 2.29 1.457 3.437q0.877 2.076 1.745 4.152c0.129 0.31 1.458 0.459 1.532 0.459s1.293-0.020 1.569-0.698c0.964-2.364 1.98-4.712 2.985-7.132zM10.893 11.118v0c0.006-0.052 0.036-0.131 0.014-0.152-0.556-0.518-1.116-1.029-1.71-1.572v0c-0.153 0.169-0.253 0.304-0.379 0.417-0.929 0.844-2.256 0.733-2.893-0.287-0.186-0.305-0.296-0.674-0.296-1.069 0-0.158 0.018-0.311 0.051-0.459l-0.003 0.014c0.125-0.658 0.448-1.22 1.182-1.419 0.815-0.223 1.52-0.046 2.099 0.565 0.204 0.214 0.338 0.258 0.575 0.020 0.454-0.458 0.952-0.873 1.482-1.351v0c-0.263-0.253-0.496-0.534-0.785-0.738-1.229-0.866-2.618-1.043-4.047-0.751-1.091 0.214-2.010 0.83-2.615 1.684l-0.009 0.013c-0.578 0.807-0.714 1.695-0.687 2.647 0.042 1.552 0.803 2.657 2.116 3.4 0.835 0.472 1.75 0.572 2.711 0.526 1.262-0.062 2.32-0.49 3.195-1.488z">
            </path>
        </symbol>
        <symbol id="icon-itchio" viewBox="0 0 32 32">
            <path
                d="M6.751 5.161c-1.129 0.671-3.355 3.225-3.375 3.895v1.108c0 1.409 1.316 2.642 2.512 2.642 1.435 0 2.627-1.191 2.627-2.601 0 1.41 1.155 2.601 2.59 2.601s2.549-1.191 2.549-2.601c0 1.41 1.227 2.601 2.663 2.601h0.026c1.436 0 2.663-1.191 2.663-2.601 0 1.41 1.118 2.601 2.549 2.601s2.59-1.191 2.59-2.601c0 1.41 1.196 2.601 2.626 2.601 1.196 0 2.512-1.238 2.512-2.642v-1.108c-0.021-0.671-2.247-3.23-3.375-3.901-3.516-0.12-5.95-0.14-9.58-0.14s-8.576 0.057-9.575 0.146zM13.632 12.151c-1.144 1.997-4.052 2.013-5.196 0.016-0.686 1.201-2.247 1.67-2.913 1.441-0.203 2.091-0.713 12.332 0.921 14.001 4.161 0.973 15.712 0.942 19.754 0 1.649-1.68 1.108-12.066 0.926-14.001-0.671 0.229-2.231-0.239-2.913-1.441-1.144 2.002-4.052 1.982-5.196-0.010-0.369 0.65-1.202 1.503-2.694 1.503-1.107 0.037-2.144-0.542-2.694-1.503l0.005-0.005zM11.468 14.95c0.858 0 1.618 0 2.559 1.030 1.525-0.155 3.062-0.155 4.587 0 0.947-1.030 1.711-1.030 2.564-1.030 2.72 0 3.391 4.031 4.364 7.515 0.9 3.235-0.286 3.313-1.768 3.313-2.195-0.083-3.407-1.675-3.407-3.266-2.044 0.333-5.3 0.458-8.093 0 0 1.592-1.212 3.183-3.407 3.266-1.477-0.005-2.663-0.083-1.763-3.313 0.973-3.485 1.643-7.515 4.364-7.515zM16.326 17.436c0 0-2.309 2.122-2.725 2.871l1.508-0.062v1.316c0 0.083 1.108 0.010 1.212 0.010 0.608 0.026 1.212 0.052 1.212-0.010v-1.316l1.508 0.062c-0.416-0.754-2.725-2.871-2.725-2.871h0.010z">
            </path>
        </symbol>
        <symbol id="icon-linkedin" viewBox="0 0 32 32">
            <path
                d="M24.453 24.453h-3.573v-5.573q0-0.907-0.053-1.387-0.133-0.747-0.507-1.147-0.427-0.507-1.28-0.507-1.253 0-1.76 0.907-0.373 0.693-0.373 2.027v5.68h-3.547v-11.467h3.413v1.573h0.027q0.427-0.773 1.227-1.253 0.96-0.587 2.16-0.587 1.707 0 2.693 0.72 0.88 0.64 1.253 1.947 0.32 1.067 0.32 2.773v6.293zM9.333 11.44q-0.853 0-1.453-0.613t-0.6-1.467 0.6-1.453 1.453-0.6 1.467 0.6 0.613 1.453-0.613 1.467-1.467 0.613zM11.12 24.453h-3.573v-11.467h3.573v11.467zM26.213 4h-20.453q-0.72 0-1.24 0.507t-0.52 1.227v20.533q0 0.72 0.52 1.227t1.24 0.507h20.453q0.747 0 1.267-0.507t0.52-1.227v-20.533q0-0.72-0.52-1.227t-1.267-0.507v0z">
            </path>
        </symbol>
        <symbol id="icon-github" viewBox="0 0 32 32">
            <path
                d="M16 2.987q-2.72 0-5.2 1.067-2.373 1.013-4.227 2.853t-2.867 4.24q-1.040 2.48-1.040 5.173 0 2.907 1.173 5.52 1.147 2.533 3.227 4.4t4.72 2.747q0.453 0.080 0.68-0.133t0.227-0.507v-2.48q-2.213 0.4-3.413-0.267-0.773-0.453-1.093-1.307-0.133-0.4-0.507-0.96-0.48-0.72-0.853-0.933-0.48-0.24-0.587-0.507-0.16-0.347 0.547-0.36t1.347 0.52q0.427 0.347 0.72 0.853 0.8 1.307 2.107 1.413 0.88 0.080 1.787-0.32 0.16-1.2 0.853-1.787-1.733-0.187-2.88-0.72-1.493-0.667-2.267-1.973-0.933-1.493-0.933-3.893 0-2.080 1.387-3.573-0.213-0.533-0.267-1.2-0.080-1.173 0.4-2.347l0.213-0.027q0.293 0 0.667 0.080 0.507 0.107 1.12 0.373 0.773 0.347 1.653 0.933 1.6-0.427 3.333-0.427t3.333 0.427q1.6-1.067 2.8-1.333 0.587-0.107 0.88-0.027v0q0.453 1.173 0.373 2.347-0.027 0.667-0.24 1.2 1.36 1.493 1.36 3.573 0 2.4-0.907 3.92-0.8 1.28-2.293 1.947-1.147 0.533-2.88 0.72 0.4 0.347 0.64 0.907 0.267 0.667 0.267 1.547l-0.027 3.68q0 0.32 0.227 0.52t0.68 0.12q2.693-0.907 4.76-2.8t3.2-4.453 1.133-5.413q0-2.693-1.040-5.173-1.013-2.4-2.867-4.24t-4.227-2.853q-2.48-1.067-5.2-1.067z">
            </path>
        </symbol>
        <symbol id="icon-arrow-down" viewBox="0 0 32 32">
            <path
                d="M16 25.552l8.276-8.276-1.886-1.886-6.391 6.391-6.391-6.391-1.886 1.886 8.276 8.276zM16 18.019l8.276-8.276-1.886-1.886-6.391 6.391-6.391-6.391-1.886 1.886 8.276 8.276z">
            </path>
        </symbol>
        <symbol id="icon-cpp" viewBox="0 0 32 32">
            <path
                d="M28.079 8v0 0c-0.223-0.39-0.53-0.725-0.873-0.92l-11.754-6.783c-0.678-0.39-1.784-0.39-2.462 0l-11.754 6.783c-0.678 0.39-1.226 1.347-1.226 2.128v13.575c0 0.39 0.139 0.827 0.362 1.217v0 0c0.223 0.39 0.53 0.725 0.873 0.92l11.754 6.783c0.678 0.39 1.784 0.39 2.462 0l11.754-6.783c0.334-0.195 0.65-0.53 0.873-0.92s0.362-0.818 0.362-1.217v-13.575c-0.009-0.39-0.149-0.827-0.372-1.208zM14.216 25.477c-5.222 0-9.477-4.256-9.477-9.477s4.256-9.477 9.477-9.477c3.373 0 6.513 1.812 8.204 4.739l-4.098 2.369c-0.846-1.459-2.416-2.369-4.107-2.369-2.611 0-4.739 2.128-4.739 4.739s2.128 4.739 4.739 4.739c1.691 0 3.261-0.911 4.107-2.369l4.098 2.369c-1.691 2.918-4.832 4.739-8.204 4.739zM23.693 16.52h-1.050v1.050h-1.050v-1.050h-1.059v-1.050h1.050v-1.050h1.050v1.050h1.059v1.050zM27.642 16.52h-1.050v1.050h-1.050v-1.050h-1.050v-1.050h1.050v-1.050h1.050v1.050h1.050v1.050z">
            </path>
        </symbol>
        <symbol id="icon-git" viewBox="0 0 32 32">
            <path
                d="M31.374 14.609l-13.983-13.983c-0.8-0.8-2.122-0.8-2.922 0 0 0 0 0 0 0l-2.887 2.887 3.687 3.687c0.87-0.313 1.843-0.070 2.504 0.591s0.904 1.635 0.591 2.539l3.548 3.548c0.87-0.313 1.878-0.070 2.539 0.591 0.939 0.939 0.939 2.504 0 3.478 0 0 0 0 0 0-0.974 0.939-2.504 0.939-3.478 0-0.696-0.696-0.904-1.739-0.522-2.678l-3.304-3.304v8.696c1.217 0.591 1.704 2.052 1.113 3.27-0.104 0.243-0.278 0.452-0.452 0.661-0.939 0.939-2.504 0.939-3.478 0 0 0 0 0 0 0-0.939-0.939-0.974-2.504 0-3.478 0 0 0 0 0 0 0.243-0.243 0.487-0.417 0.8-0.522v-8.8c-1.252-0.522-1.843-1.948-1.322-3.2 0 0 0 0 0 0l-3.652-3.617-9.565 9.565c-0.8 0.8-0.8 2.122 0 2.922l13.948 13.948c0.8 0.8 2.122 0.8 2.922 0l13.878-13.878c0.835-0.835 0.835-2.122 0.035-2.922z">
            </path>
        </symbol>
        <symbol id="icon-csharp" viewBox="0 0 32 32">
            <path
                d="M20.951 15.291h0.887l-0.115 1.084h-0.884l0.112-1.084zM28.436 9.213v13.574c-0.030 0.857-0.466 1.624-1.231 2.133l-11.756 6.787c-0.677 0.391-1.785 0.391-2.463 0l-11.756-6.787c-0.713-0.468-1.179-1.222-1.231-2.133v-13.574c0-0.782 0.554-1.742 1.231-2.133l11.756-6.787c0.677-0.391 1.785-0.391 2.463 0l11.756 6.787c0.711 0.48 1.204 1.31 1.231 2.133zM22.427 20.742l-4.102-2.374c-2.736 4.38-8.78 2.24-8.846-2.368 0.221-5 6.369-6.464 8.846-2.369l4.102-2.374c-5.346-8.6-17.743-4.513-17.687 4.742 0.238 9.978 12.976 12.921 17.688 4.742zM23.406 14.537h-0.703l0.127-1.225h-0.781l-0.13 1.224h-0.889l0.127-1.224h-0.781l-0.13 1.224h-0.745v0.755h0.665l-0.115 1.084h-0.768v0.755h0.688l-0.142 1.339h0.796l0.139-1.339h0.881l-0.142 1.339h0.796l0.139-1.339h0.753v-0.755h-0.675l0.112-1.084h0.781v-0.755z">
            </path>
        </symbol>
        <symbol id="icon-unreal" viewBox="0 0 32 32">
            <path
                d="M16 3c-7.168 0-13 5.832-13 13s5.832 13 13 13c7.168 0 13-5.832 13-13s-5.832-13-13-13zM16 5c6.086 0 11 4.914 11 11s-4.914 11-11 11c-6.086 0-11-4.914-11-11s4.914-11 11-11zM16 8c-4.758 0.84-9 5.227-9 10 2.328-4.109 3.883-4.406 4.313-4.406s0.656 0.223 0.656 0.719v6.125c0 0.762-1.48 0.637-1.969 0.563 1.809 2.691 6 3 6 3l2-2 2 1c3.156-1.445 5-4.539 5-5-1.371 1.512-2.734 2-3 2s-1-0.137-1-0.5v-7.25c0-0.629 1.453-2.551 2-3.25-3.609 0.945-4.656 2.594-4.656 2.594s-0.273-0.594-1.344-0.594c0.398 0.344 1 1.273 1 2v6.125c0 0-1.305 0.875-2 0.875s-1.031-0.281-1.031-0.813c0-0.531 0.031-7.188 0.031-7.188s-1 0.367-1-1.688c0-1.027 2-2.313 2-2.313z">
            </path>
        </symbol>
        <symbol id="icon-agile" viewBox="0 0 32 32">
            <path
                d="M15.675 3.631c-.088.081-.725.831-1.419 1.669-1.294 1.563-1.381 1.7-1.175 1.969.037.05.675.581 1.412 1.163l1.331 1.069h.325c.175 0 .575.044.881.094 1.425.231 2.663.894 3.688 1.975.769.806 1.281 1.738 1.575 2.838.144.55.163.744.163 1.594 0 .844-.019 1.05-.163 1.575a6.425 6.425 0 0 1-1.575 2.856c-1.019 1.075-2.225 1.725-3.681 1.975-.438.075-1.106.094-3.156.094h-2.6l-1.387 1.394C8.613 25.171 8.5 25.302 8.5 25.502s.113.331 1.394 1.606l1.387 1.394h1.137c1.213 0 1.394-.038 1.512-.294.106-.231.081-.387-.088-.55-.15-.15-.175-.156-1.137-.156h-.988l-2-2 .994-.994.994-1 2.694-.025c2.45-.025 2.744-.038 3.225-.156 1.45-.35 2.625-1.006 3.663-2.038 2.219-2.225 2.819-5.45 1.556-8.375-.656-1.5-2.087-2.963-3.625-3.688-.8-.381-2.15-.725-2.863-.725-.125 0-.425-.2-1.125-.756-.525-.419-.956-.781-.969-.813-.012-.025.419-.581.963-1.225 1.131-1.356.963-1.269 2.162-1.112a11.584 11.584 0 0 1 5.706 2.369c.619.487 1.462 1.331 1.913 1.912.438.569.744.662 1.044.331.275-.306.069-.681-1.012-1.819-2.238-2.338-5.194-3.694-8.444-3.869-.731-.038-.756-.031-.919.112zM12.5 4c-1.438.412-3.019 1.231-4.281 2.213-.544.425-1.544 1.431-2 2.006-2.806 3.581-3.494 8.313-1.806 12.469.319.775.612.981.987.681.213-.169.213-.438.006-.9-.269-.606-.594-1.7-.731-2.456-.194-1.069-.194-2.994 0-4.031.813-4.325 3.819-7.694 8.012-8.981.363-.112.706-.244.769-.3.156-.138.144-.537-.031-.7-.169-.156-.387-.156-.925 0zm.131 5.313c-3.744 1.875-5.206 6.406-3.269 10.15.512 1 1.394 2.038 1.725 2.038.231 0 .494-.256.494-.481 0-.144-.094-.306-.394-.65-.775-.9-1.25-1.788-1.512-2.844-.119-.462-.137-.719-.137-1.556.006-.869.025-1.075.162-1.594.512-1.894 1.681-3.313 3.494-4.231.656-.331.794-.5.681-.806-.162-.425-.425-.431-1.244-.025zm13.75 1.037c-.169.219-.163.4.019.762.238.475.575 1.431.744 2.106.756 3.006.256 6.2-1.381 8.831-.462.744-.825 1.2-1.544 1.944-2.113 2.181-4.8 3.369-7.938 3.488-.925.038-1.006.05-1.137.181a.466.466 0 0 0 .012.681c.137.144.194.156.769.156 2.944 0 5.838-1.05 8.106-2.95 4.231-3.538 5.637-9.481 3.425-14.531-.156-.356-.344-.688-.413-.738-.219-.15-.512-.119-.663.069zm-11.318.738c-1.169.25-2.125.813-2.875 1.694-1.412 1.669-1.575 4.1-.381 5.919 1.512 2.319 4.612 2.988 6.894 1.494 2.675-1.75 3.075-5.475.825-7.719-.644-.65-1.387-1.069-2.337-1.331-.488-.131-1.625-.162-2.125-.056zm1.781 1.006c1.344.281 2.556 1.394 2.988 2.75.194.619.194 1.694 0 2.313a4.194 4.194 0 0 1-2.675 2.675c-.619.194-1.694.194-2.313 0-1.231-.387-2.281-1.438-2.662-2.644a5.051 5.051 0 0 1-.162-.969c-.15-2.619 2.238-4.662 4.825-4.125zm.418 2.644c-.438.412-1.113 1.044-1.506 1.406l-.713.663-.556-.494c-.619-.563-.813-.619-1.081-.344-.313.306-.213.506.662 1.313.744.688.85.75 1.075.694.131-.031 3.038-2.662 3.469-3.137.288-.319.063-.838-.363-.838-.163 0-.331.125-.988.738zM1.156 22.656l-.156.15v5.387l.156.15.15.156h7.519l.181-.181c.231-.231.231-.406 0-.637l-.181-.181H2v-4h6.825l.181-.181c.231-.231.231-.406 0-.637l-.181-.181H1.306l-.15.156zm26.588.088c-.337.337-.3.406.994 1.706l1.044 1.05-2 2h-2.375c-1.994 0-2.4.012-2.512.094-.281.2-.225.706.1.837.119.05.938.069 2.712.056l2.544-.019 1.375-1.375c1.256-1.262 1.375-1.4 1.375-1.594 0-.2-.119-.331-1.363-1.575-1.5-1.506-1.544-1.531-1.894-1.181z">
            </path>
        </symbol>
        <symbol id="icon-graphics" viewBox="0 0 32 32">
            <path
                d="M28.344 6.144h-.206c-7.569.031-15.131 0-22.7.031-.9.006-1.287-.125-1.275-1.181.019-2.663-1.225-2.469-2.769-2.45-.381.006-.725.138-.756.563-.031.431.281.638.669.631 1.594-.025 1.7-.119 1.706 2.163.006 6.669-.013 13.331-.013 20v.9c0 .469.019.988.644.962.506-.025.556-.481.556-.906-.006-.55.013-1.1-.006-1.656-.019-.581-.069-1.063.813-1.025.731.031 1.112.05 1.125.9.019 1.712.713 1.531 1.731 1.55s1.606.087 1.613-1.425c0-.438-.088-1.056.794-1 .9.056.731.719.713 1.1-.05.962.55 1.325 1.094 1.331 2.606.038 5.213-.038 7.819-.019.65.006.65.012.819-.663s-.387-1.744.988-1.694c.856.031.488 1.069.619 1.644.156.688.506.731 1.031.712.481-.019 1.1.15 1.25-.512.113-.506-.313-.663-.756-.694-.587-.038-.356-.494-.381-.794-.038-.469.337-.4.619-.406 1.35-.006 2.706-.063 4.056.012h.031a2.394 2.394 0 0 0 2.5-2.394V8.537a2.397 2.397 0 0 0-2.325-2.394zM8.425 24.794c-.019.4-.081.675-.556.613-.375.031-.694.006-.656-.506.025-.331-.063-.7.481-.694.419 0 .763-.006.731.587zm10.694.619a457.838 457.838 0 0 0-6.419.006c-.5.006-.706-.131-.688-.669.012-.506.281-.544.662-.544 1.094.006 2.188 0 3.281 0 1.044 0 2.088.006 3.131 0 .413 0 .762-.031.769.587.006.594-.3.619-.738.619zM29.488 8.869a457.167 457.167 0 0 0-.006 12.775c.012 1.056-.319 1.394-1.375 1.375-3.756-.05-7.519-.019-11.275-.019-3.806 0-7.619-.038-11.425.025-.981.012-1.244-.244-1.231-1.225a521.03 521.03 0 0 0 0-13.231c-.013-.981.244-1.237 1.225-1.231 7.519.044 15.031.05 22.55 0 1.2-.006 1.563.325 1.538 1.531zm-19.119.906c1.1 0 2.2-.006 3.3 0 .387 0 .713.162.713.588 0 .431-.325.594-.713.594-2.3.006-4.606.006-6.906 0-.388 0-.713-.162-.713-.594s.325-.588.713-.594c1.2 0 2.4.006 3.606.006zm-.238 4.2h-3.3c-.388 0-.737-.125-.775-.531-.044-.519.344-.662.794-.662h6.756c.387 0 .738.125.775.531.044.519-.344.662-.794.662h-3.456zm.069 3.612H6.9c-.431 0-.856-.094-.838-.619.019-.519.45-.587.875-.581h6.606c.431 0 .856.094.838.613-.019.512-.45.587-.875.587H10.2zm-.044 3.007h-3.3c-.444 0-.838-.137-.794-.663.031-.413.381-.538.769-.538h6.756c.444 0 .838.137.794.656-.031.406-.381.538-.769.538-1.156 0-2.306.006-3.456.006zm11.6-10.975c-3.3-.012-6.006 2.669-6.037 5.981-.031 3.275 2.694 6.025 5.975 6.044 3.288.019 6.006-2.681 6.044-5.981.031-3.275-2.7-6.031-5.981-6.044zM19.525 11.4c.137-.081.319.006.35.162.194 1.019.7 3.137.031 3.262-.825.156-1.637-.375-2.269-.931-.506-.45.962-1.963 1.887-2.494zm-2.15 6.269c-.313-.8-.569-1.6-.394-2.544.925.338 1.844.65 2.738 1.006.531.212.706.581.206 1.012-.375.325-.8.6-1.194.9-.619.475-1.056.4-1.356-.375zm4.7 2.668c-.475.369-1.25.05-1.875-.169-.469-.169-.95-.313-1.25-.756.625-.5 1.294-.95 1.856-1.506.837-.831 1.294-.606 1.431.45.094.675.413 1.538-.163 1.981zm-.819-7.224c-.144-.725-.481-1.838.075-2.113.988-.5 2.012-.025 2.962.613a.219.219 0 0 1 .012.356c-.675.55-1.212 1.094-1.831 1.531-.75.531-1.063.419-1.219-.387zm4.669 4.556c-.144 1.156-1.144 1.881-2.281 2.3-.144-.894-.256-1.725-.425-2.538-.181-.894.075-1.281.988-.913.669.275 1.8.475 1.719 1.15zm-2.144-2.513c-.625-.244-.769-.65-.2-1.106.606-.488 1.369-1.431 1.975-1.037.988.644 1.063 1.925.919 3.125-.925-.338-1.819-.644-2.694-.981z">
            </path>
        </symbol>
        <symbol id="icon-design" viewBox="0 0 32 32">
            <path
                d="M22.2 22.7c1.2 0.1 1.4-1.6 0.4-2-1.5-0.5-2 2-0.4 2zM24.2 20.7c1.2 0.1 1.4-1.6 0.4-2-1.6-0.5-2 2-0.4 2zM26.2 22.7c1.2 0.1 1.4-1.6 0.4-2-1.6-0.5-2 2-0.4 2zM24.6 22.7c-1.5-0.5-2 2-0.4 2 1.2 0.1 1.4-1.6 0.4-2zM9.2 20.7c0-0.6 0.2-1.8-0.6-2-1.4-0.3-1.5 1-1.4 2-0.9-0.1-2-0.2-2 1s1.2 1.1 2 1c-0.1 0.9-0.2 2 1 2s1.1-1.2 1-2c0.9 0.1 2 0.2 2-1s-1.2-1.1-2-1zM25.2 31.4c-2.7 0-3.6-1.8-4.3-3.1s-1.1-1.9-2.2-1.9c-5.4-0.2-5.6 0.1-5.9 0.9-0.595 1.522-1.64 2.76-2.969 3.582l-0.031 0.018-0.2 0.1c-3.3 1-6-0.4-7.2-3.7-1.6-4.3-0.3-10.7 3.6-12.3h0.3c0.777-0.198 1.668-0.312 2.586-0.312 0.181 0 0.36 0.004 0.539 0.013l-0.025-0.001h0.7c1 0 1.080 0.26 2.28 1.060 0.184 0.193 0.395 0.359 0.627 0.493l0.014 0.007c0.414 0.277 0.924 0.442 1.472 0.442 0.038 0 0.076-0.001 0.114-0.002l-0.005 0h0.3c3.2 0.3 4.43-0.29 4.43-0.29 0.958-0.943 2.23-1.569 3.645-1.708l0.025-0.002h0.9c0.4 0 0.7 0.1 1.1 0.1 1.278 0.091 2.422 0.607 3.305 1.404l-0.005-0.004 1.3 1.3c0.989 1.652 1.574 3.645 1.574 5.774 0 1.752-0.396 3.412-1.103 4.894l0.029-0.069c-0.865 1.874-2.684 3.173-4.817 3.279l-0.013 0.001c0.18-0.010-0.070 0.020-0.070 0.020zM18.55 25c1.623 0.097 2.98 1.135 3.541 2.572l0.009 0.028c0.7 1.3 1.3 2.4 3.1 2.3 1.607-0.025 2.993-0.942 3.689-2.277l0.011-0.023c1.4-2.7 0.9-6.8-0.4-9-0.2-0.2-0.6-0.5-1.2-1.1-0.641-0.57-1.472-0.939-2.388-0.999l-0.012-0.001c-0.054 0.003-0.118 0.004-0.182 0.004-0.325 0-0.642-0.038-0.946-0.11l0.028 0.006h-0.8c-1.023 0.082-1.948 0.444-2.714 1.010l0.014-0.010c-0.9 1.2-3.3 1.1-5.5 0.9h-0.4c-0.842-0.167-1.564-0.595-2.097-1.196l-0.003-0.004-0.3-0.3c-0.454-0.384-1.047-0.618-1.694-0.618-0.108 0-0.214 0.006-0.319 0.019l0.013-0.001h-0.8c-0.135-0.008-0.293-0.012-0.453-0.012-0.8 0-1.574 0.114-2.306 0.327l0.058-0.015h-0.1c-3 1.3-4 6.8-2.8 10.3 0.6 1.8 2.1 3.7 5.2 2.8 1.062-0.67 1.889-1.626 2.385-2.76l0.015-0.040c0.7-1.7 1.15-2.11 7.050-1.81zM4.3 16.14c0.619-0.624 1.365-1.12 2.197-1.445l0.043-0.015h0.060v-0.29c0-0.018 0.001-0.039 0.001-0.060 0-1.005-0.431-1.909-1.118-2.538l-0.003-0.002-0.55-0.44c-1.185-0.856-2.018-2.138-2.275-3.616l-0.005-0.034c0-0.23 0-0.87 0-1.17v-0.15c0-0.002 0-0.005 0-0.008 0-1.401 0.565-2.671 1.48-3.593l-0 0c0.551-0.582 1.278-0.992 2.096-1.146l0.024-0.004c0.005-0 0.010-0 0.015-0 0.15 0 0.293 0.033 0.421 0.093l-0.006-0.003c0.131 0.13 0.212 0.311 0.212 0.511 0 0.021-0.001 0.042-0.003 0.062l0-0.003c0 0.14 0 3.8 0 3.8l1.81 0.5c0.174 0.048 0.374 0.075 0.58 0.075s0.406-0.027 0.596-0.079l-0.016 0.004 1.84-0.5v-3.59c0-0.54 0-0.54 0.17-0.72 0.098-0.101 0.235-0.164 0.387-0.164 0.022 0 0.044 0.001 0.065 0.004l-0.003-0c0.914 0.172 1.7 0.634 2.276 1.286l0.004 0.004c0.553 0.607 0.974 1.345 1.21 2.161l0.010 0.039v0.52c0.050 0.59 0.1 1.22 0.1 1.29 0 0.014 0 0.031 0 0.048 0 1.452-0.593 2.766-1.55 3.712l-0 0c-0.322 0.323-0.664 0.625-1.026 0.902l-0.024 0.018c-0.71 0.501-1.2 1.274-1.318 2.164l-0.002 0.016c0 0.11 0 0.36 0 0.45-0.016 0.078-0.025 0.167-0.025 0.259 0 0.276 0.084 0.533 0.228 0.746l-0.003-0.005c0.174 0.201 0.353 0.384 0.544 0.555l0.006 0.005 0.17 0.16c0.354 0.418 0.88 0.681 1.466 0.681 0.019 0 0.038-0 0.056-0.001l-0.003 0h3.92c0.728-0.092 1.356-0.461 1.786-0.995l0.004-0.005c0.445-0.561 0.714-1.279 0.714-2.060 0-0.191-0.016-0.377-0.047-0.559l0.003 0.020s-0.1-6.52-0.1-6.58c-0.001-0.020-0.002-0.042-0.002-0.066 0-0.323 0.118-0.619 0.313-0.846l-0.001 0.002 2.79-3.71c0.092-0.127 0.235-0.213 0.398-0.23l0.002-0h0.29c0.2 0.049 0.365 0.172 0.468 0.337l0.002 0.003s2.33 3.1 2.64 3.53c0.158 0.218 0.276 0.477 0.337 0.756l0.003 0.014s0 8.68 0 8.81c0 0.77 1 1.51 1.49 2.080-0.247 0.317-0.63 0.519-1.059 0.519-0.397 0-0.754-0.173-1-0.448l-0.001-0.001c-0.807-0.705-1.841-1.169-2.98-1.269l-0.020-0.001c-0.134-0.011-0.29-0.018-0.447-0.018-1.287 0-2.472 0.436-3.416 1.167l0.013-0.009c-2.3 2.090-5.58-0.3-8.58-0.83-1.142-0.112-2.182-0.313-3.185-0.601l0.125 0.031c-1.14-0.39-2.42 0.8-3.59 0.92-0.98 0.12-1.030-0.44-1.010-0.45zM24.86 8.84v5.77l1.79 0.36v-6.55zM21.75 14.92l1.91-0.26v-5.82l-1.8-0.57zM5 3.54c-0.94 1-1.12 3.35-1.12 3.35-0 0.007-0 0.016-0 0.025 0 1.138 0.475 2.165 1.239 2.894l0.002 0.001c0.348 0.354 0.72 0.682 1.115 0.982l0.025 0.018c0.77 0.595 1.313 1.452 1.496 2.435l0.004 0.025c0 0.15 0.13 1.42 0.13 1.42h2.74l0.070-0.93c0.077-1.092 0.56-2.058 1.298-2.758l0.002-0.002 0.5-0.4c1.050-0.665 1.814-1.7 2.113-2.917l0.007-0.033c0-0.27 0-1.13 0-1.13-0.173-1.132-0.575-2.145-1.158-3.028l0.018 0.028-0.79-0.11c0.035 0.504 0.055 1.092 0.055 1.685s-0.020 1.181-0.060 1.764l0.004-0.079c-0.912 0.654-2.050 1.045-3.28 1.045-0.084 0-0.168-0.002-0.252-0.005l0.012 0c-0.021 0-0.045 0-0.069 0-0.272 0-0.539-0.018-0.801-0.054l0.031 0.003c-1.007-0.12-1.898-0.547-2.594-1.183l0.004 0.003c0-0.12 0.1-3.22 0.1-3.22zM22 6.33l0.1 0.22c0.215 0.406 0.564 0.716 0.987 0.876l0.013 0.004c0.334 0.136 0.722 0.217 1.129 0.22h0.001c0.421-0.002 0.82-0.097 1.177-0.267l-0.017 0.007c0.433-0.229 0.807-0.481 1.15-0.768l-0.010 0.008-2.32-3.22z">
            </path>
        </symbol>
        <symbol id="icon-programming" viewBox="0 0 32 32">
            <path
                d="M22.2 22.7c1.2.1 1.4-1.6.4-2-1.5-.5-2 2-.4 2zM24.2 20.7c1.2.1 1.4-1.6.4-2-1.6-.5-2 2-.4 2zM18.8 8.9c-.3.3-.8.5-.9 1 0 .2.1.3.3.4.2 0 .3 0 .5-.1.5-.4 1-.8 1.5-1.1.3-.2.5-.4.6-.7 0-.2 0-.3-.2-.4-.6-.5-1.2-.9-1.7-1.3-.3-.2-.6-.4-.9-.1-.1.2-.1.3-.1.5.4.5.4.5 1 .8.2.1.4.3.6.4v.1c-.3.2-.4.3-.7.5zM26.2 22.7c1.2.1 1.4-1.6.4-2-1.6-.5-2 2-.4 2zM24.6 22.7c-1.5-.5-2 2-.4 2 1.2.1 1.4-1.6.4-2zM9.2 20.7c0-.6.2-1.8-.6-2-1.4-.3-1.5 1-1.4 2-.9-.1-2-.2-2 1-.1 1.1 1.2 1.1 2 1-.1.9-.2 2 1 2 1.1.1 1.1-1.2 1-2 .9.1 2 .2 2-1 .1-1.2-1.2-1.1-2-1z M24.2 7.3c-.6-.7-1.5-.9-2-1h-.3l.3-.5c.5-.7 1.2-1.7-.1-2.8-.3-.5-.7-.8-1.3-.8-.5 0-1.1.3-1.7.7l-.3.2-.2-.5c-.2-1-.9-2.1-2.2-2.1-.1 0-.4 0-.6.1-1.2.1-1.5 1.2-1.6 2.1V3l-.4-.3c-.4-.2-.9-.6-1.5-.6-.5 0-.9.2-1.4.7-.5.3-.7.7-.8 1.1-.1.6.2 1.3.7 2l.2.2-.3.1c-.7.2-1.8.4-2 1.4v.1c-.2 2.4.7 2.8 2.1 3l.3.1-.3.4c-.5.7-1.2 1.6.1 2.8.3.5.7.8 1.3.8.5 0 1.1-.3 1.7-.7l.2-.2v.4c.1.6.4 2.1 1.8 2.1h.7c1.3 0 2-1.1 2-2.1V14l.4.3c.4.2.9.6 1.5.6.5 0 .9-.2 1.4-.7.5-.3.7-.7.8-1.1.1-.6-.1-1.3-.6-2l-.2-.3h.3c.8-.1 1.4-.4 1.8-1 .4-.7.5-1.7.2-2.5zm-1.4.8c0 .2 0 .5-.2.7-.1.1-.1.1-.6.3-.6.2-1.1.7-1.3 1.3s-.1 1.3.2 1.8c.1.1.1.2.2.3l.1.1-.1.1c-.1 0-.4.3-.4.3l-.2.1-.2-.1c-.3-.3-.8-.4-1.2-.4-.9 0-1.7.5-2 1.4-.1.2-.2.4-.2.5l-.1.1h-1.1l-.1-.3c-.2-1.1-1.1-1.8-2.1-1.8-.4 0-.8.1-1.1.3l-.2.1-.1.1-.1-.1c0-.1-.3-.4-.3-.4l-.1-.1.1-.1c.1-.2.2-.3.3-.4.5-.7 1-1.4.4-2.5l-.2-.3c-.5-.1-1.4-.3-1.8-.3h-.1v-1h.1c.3-.1.7-.2 1-.2s.5 0 .8-.1l.2-.3c.6-1 .1-1.7-.3-2.4-.1-.2-.2-.3-.3-.5v-.1l.1-.1c.1 0 .4-.3.4-.3l.1-.1.1.1c.4.3.8.4 1.3.4 1 0 1.9-.7 2.1-1.7v-.2h.1c.2-.1.4-.1.5-.1h.2c.2 0 .3.2.4.6.3.8 1.1 1.4 2 1.4.4 0 .8-.1 1.1-.3.1 0 .2-.1.3-.1l.1-.1.1.1c0 .1.3.4.3.4l.1.2-.1.1c-.3.6-.4 1.3-.2 1.9.3.6.8 1.1 1.5 1.4l.5.2v.1z M15.4 10.3c.2-.1.2-.2.3-.4-.1-.4-.6-.7-.9-1-.3-.2-.4-.3-.7-.5.1-.2.3-.4.5-.5.6-.3.6-.3 1-.8 0-.2 0-.3-.1-.5-.3-.3-.6-.1-.9.1-.6.4-1.1.8-1.7 1.3-.2.1-.2.2-.2.4 0 .3.3.5.6.7.5.4 1 .8 1.5 1.1.2.1.3.1.6.1zM25.2 31.4c-2.7 0-3.6-1.8-4.3-3.1-.7-1.3-1.1-1.9-2.2-1.9-5.4-.2-5.6.1-5.9.9-.3.8-.8 2-3 3.6l-.2.1c-3.3 1-6-.4-7.2-3.7C.8 23 2.1 16.6 6 15H6.3c.5-.1 1.7-.4 3.1-.3h.7c1 0 1.6.1 2.8.9.2.2.3.3.5.4.3.3.6.6 1.2.7h.3c3.2.3 4 0 4.2-.4l.1-.1.1-.1c.1-.1 1.8-1.4 3.7-1.4h.9c.4 0 .7.1 1.1.1 1.3.1 2.4.6 3.3 1.4l1 1 .2.1.1.2c1.9 2.9 2.1 7.6.5 10.6-1 2-2.8 3.1-4.9 3.2.1.1 0 .1 0 .1zm-6.4-6.5c1.9 0 2.7 1.5 3.3 2.7.7 1.3 1.3 2.4 3.1 2.3 1.6-.1 2.9-.8 3.7-2.3 1.4-2.7.9-6.8-.4-9-.2-.2-.6-.5-1.2-1.1-.7-.6-1.4-.9-2.4-1-.3 0-.8 0-1.1-.1H23c-1.1 0-2.3.7-2.7 1-.9 1.2-3.3 1.1-5.5.9h-.4c-1.1-.2-1.7-.8-2.1-1.2l-.3-.3c-.9-.6-1.1-.6-2-.6h-.8c-1.2-.1-2.3.2-2.7.3h-.1c-3 1.3-4 6.8-2.8 10.3.6 1.8 2.1 3.7 5.2 2.8 1.8-1.3 2.1-2.2 2.4-2.8.7-1.7 1.4-2.1 7.3-1.8.2-.1.3-.1.3-.1z">
            </path>
        </symbol>
        <symbol id="icon-godot" viewBox="0 0 32 32">
            <path
                d="M13.1,2.4c-1.3,0.3-2.6,0.7-3.9,1.3c0,1.1,0.1,2.1,0.2,3.2C8.9,7.2,8.4,7.5,8,7.8C7.5,8.2,7.1,8.5,6.7,8.9C5.8,8.4,5,7.9,4.1,7.4c-1,1-1.9,2.2-2.6,3.4c0.6,0.9,1.2,1.8,1.8,2.5V21l0,0L8,21.5c0.2,0,0.4,0.2,0.5,0.5L8.6,24l4.1,0.3l0.3-1.9	c0-0.2,0.3-0.4,0.5-0.4h5c0.3,0,0.5,0.2,0.5,0.4l0.3,1.9l4.1-0.3l0.1-2.1c0-0.2,0.2-0.4,0.5-0.5l4.7-0.5l0,0v-0.6l0,0v-7.1	c0.6-0.8,1.2-1.7,1.8-2.5c-0.7-1.3-1.6-2.4-2.6-3.4c-0.9,0.4-1.7,0.9-2.6,1.5c-0.4-0.4-0.9-0.7-1.3-1.1c-0.4-0.4-0.9-0.6-1.4-0.9	c0.1-1.1,0.2-2.1,0.2-3.2c-1.2-0.6-2.5-1-3.9-1.3c-0.5,0.9-1,1.8-1.4,2.8c-0.5-0.1-1-0.1-1.5-0.1v0l0,0l0,0v0c-0.5,0-1,0-1.5,0.1	C14.1,4.2,13.6,3.3,13.1,2.4L13.1,2.4z M9.3,13.6c1.6,0,2.8,1.3,2.8,2.8s-1.3,2.8-2.8,2.8c-1.6,0-2.8-1.3-2.8-2.8S7.8,13.6,9.3,13.6	C9.3,13.6,9.3,13.6,9.3,13.6z M22.7,13.6c1.6,0,2.8,1.3,2.8,2.8c0,1.6-1.3,2.8-2.8,2.8c-1.6,0-2.8-1.3-2.8-2.8l0,0	C19.8,14.9,21.1,13.6,22.7,13.6C22.7,13.6,22.7,13.6,22.7,13.6z M16,15.3c0.5,0,0.9,0.4,0.9,0.8v2.6c0,0.5-0.4,0.8-0.9,0.8	s-0.9-0.4-0.9-0.8v-2.6C15.1,15.7,15.5,15.3,16,15.3z M24.5,22.5l-0.1,2.1c0,0.3-0.2,0.5-0.5,0.5l-5,0.4l0,0c-0.3,0-0.5-0.2-0.5-0.4L18,23H14l-0.3,2c0,0.3-0.3,0.5-0.5,0.4	l-5-0.4c-0.3,0-0.5-0.2-0.5-0.5l-0.1-2.1l-4.2-0.4c0,0.5,0,1,0,1.1c0,4.5,5.7,6.6,12.7,6.6h0c7,0,12.7-2.2,12.7-6.6	c0-0.1,0-0.6,0-1.1L24.5,22.5z M11.5,16.6c0,1-0.8,1.9-1.9,1.9c-1,0-1.9-0.8-1.9-1.9c0,0,0,0,0,0c0-1,0.8-1.9,1.9-1.9	C10.6,14.8,11.5,15.6,11.5,16.6z M20.5,16.6c0,1,0.8,1.9,1.8,1.9c1,0,1.9-0.8,1.9-1.8c0,0,0-0.1,0-0.1c0-1-0.9-1.9-1.9-1.8	C21.4,14.8,20.5,15.6,20.5,16.6z">
            </path>
        </symbol>
        <symbol id="icon-python" viewBox="0 0 32 32">
            <path
                d="M23.488 9.14v2.966a4.284 4.284 0 0 1-4.167 4.235h-6.678a3.409 3.409 0 0 0-3.34 3.394v6.361c0 1.81 1.574 2.875 3.34 3.395.997.323 2.145.509 3.336.509s2.339-.186 3.415-.531l-.079.022c1.682-.487 3.34-1.467 3.34-3.395v-2.547h-6.672V22.7h10.012c1.941 0 2.665-1.354 3.34-3.387.326-1.015.514-2.183.514-3.394s-.188-2.379-.536-3.476l.022.081c-.48-1.933-1.396-3.387-3.34-3.387zm-3.752 16.108h.02a1.273 1.273 0 1 1-1.273 1.273v-.012c0-.694.56-1.257 1.253-1.261z M15.835 2c-1.129.001-2.233.1-3.307.289l.115-.017c-2.827.499-3.34 1.545-3.34 3.472V8.29h6.68v.849H6.796l-.076-.001a4.172 4.172 0 0 0-4.092 3.361l-.004.026c-.299 1.017-.47 2.186-.47 3.394s.172 2.377.492 3.483l-.022-.088c.475 1.978 1.609 3.387 3.55 3.387h2.297v-3.052a4.245 4.245 0 0 1 4.169-4.15H19.316a3.365 3.365 0 0 0 3.34-3.365v-.031.002-6.361a3.732 3.732 0 0 0-3.324-3.471l-.016-.001a20.217 20.217 0 0 0-3.362-.273h-.124.006zm-3.612 2.048h.02a1.273 1.273 0 1 1-1.273 1.277v-.009c0-.695.559-1.259 1.253-1.267h.001z">
            </path>
        </symbol>
        <symbol id="icon-unity" viewBox="0 0 32 32">
            <path
                d="M29.6,22.4V7.5L16.7,0v5.7l5.1,2.9c0.2,0.1,0.2,0.4,0,0.5l-6,3.5c-0.2,0.1-0.4,0.1-0.5,0l-6-3.5C9,9.1,9,8.7,9.2,8.7l5.1-2.9V0l-13,7.5v14.9l4.9-2.9v-5.9c0-0.2,0.3-0.3,0.4-0.3l6,3.5c0.2,0.1,0.3,0.3,0.3,0.5v6.9c0,0.2-0.3,0.3-0.4,0.3l-5.1-2.9l-4.9,2.9L15.4,32l12.9-7.5l-4.9-2.9l-5.1,2.9c-0.2,0.1-0.4,0-0.4-0.3v-6.9c0-0.2,0.1-0.4,0.3-0.5l6-3.5c0.2-0.1,0.4,0,0.4,0.3v5.9L29.6,22.4L29.6,22.4z">
            </path>
        </symbol>
        <symbol id="icon-mobile" viewBox="0 0 32 32">
            <path
                d="M8.4,0.7C7.7,0.9,7,1.5,6.6,2.2C6.2,2.9,6.3,2,6.3,15.9c0,11.2,0,12.8,0.1,13.1c0.3,1,1.1,1.8,2.1,2.1	c0.4,0.1,1,0.1,7.1,0.1c4.3,0,6.8,0,7.1-0.1c1.1-0.2,2.1-1.2,2.3-2.3C25,28.4,25,3.5,24.9,3c-0.2-1.1-1.1-2-2.2-2.3C22.2,0.6,9,0.6,8.4,0.7L8.4,0.7z M22.5,1.9c0.4,0.1,0.8,0.4,1,0.8c0.2,0.3,0.2,0.4,0.2,1l0,0.6H7.5l0-0.6c0-0.6,0-0.7,0.2-1c0.2-0.4,0.6-0.7,1-0.8C9,1.9,22.2,1.9,22.5,1.9L22.5,1.9z M23.8,15.9v10.3H7.5V5.6h16.2L23.8,15.9L23.8,15.9z M23.7,28.1c0,0.6,0,0.7-0.2,1c-0.2,0.4-0.6,0.7-1,0.8C22.2,30,9.1,30,8.7,29.9c-0.4-0.1-0.8-0.4-1-0.8c-0.2-0.3-0.2-0.4-0.2-1l0-0.6h16.3C23.8,27.5,23.7,28.1,23.7,28.1z M14.1,7C14,7,13.6,7.6,12.9,9.1c-0.6,1.1-1,2.1-1,2.2c0,0.3,0.3,0.6,0.6,0.6c0.4,0,0.4-0.1,1.5-2.2c0.6-1.1,1-2.1,1-2.2C15,7,14.5,6.8,14.1,7z M10.3,7.6C10,7.8,8.8,9,8.8,9.2c0,0.1,0,0.2,0,0.3c0.1,0.2,1.4,1.6,1.7,1.7c0.3,0.1,0.7-0.1,0.8-0.4c0-0.1,0-0.2,0-0.3c0-0.1-0.2-0.4-0.5-0.6l-0.4-0.5L10.7,9c0.4-0.4,0.6-0.6,0.6-0.8c0-0.3-0.3-0.6-0.6-0.6C10.5,7.5,10.4,7.6,10.3,7.6L10.3,7.6z M15.9,7.6c-0.3,0.2-0.4,0.5-0.2,0.8c0,0.1,0.3,0.3,0.5,0.6l0.4,0.4l-0.4,0.5c-0.2,0.2-0.5,0.5-0.5,0.6c-0.1,0.3,0.1,0.7,0.4,0.8c0.1,0,0.2,0,0.3,0c0.2-0.1,1.6-1.4,1.7-1.7c0.1-0.3,0-0.5-0.7-1.2C16.5,7.5,16.3,7.4,15.9,7.6L15.9,7.6z M9.7,14.5c-0.4,0.2-0.4,0.9,0,1.1c0.2,0.1,7.8,0.1,8.1,0c0.2-0.1,0.3-0.3,0.3-0.6s-0.2-0.5-0.3-0.6C17.5,14.3,9.9,14.4,9.7,14.5z M9.7,17c-0.4,0.2-0.4,0.9,0,1.1c0.2,0.1,7.8,0.1,8.1,0c0.2-0.1,0.3-0.3,0.3-0.5S18,17,17.8,16.9C17.5,16.8,9.9,16.8,9.7,17L9.7,17z M9.7,19.5c-0.4,0.2-0.4,0.9,0,1.1c0.1,0.1,1.6,0.1,5.9,0.1c6.2,0,6,0,6.2-0.3c0.1-0.3,0-0.7-0.2-0.8C21.3,19.3,9.9,19.3,9.7,19.5L9.7,19.5z M9.7,22c-0.4,0.2-0.4,0.9,0,1.1c0.1,0.1,1.6,0.1,5.9,0.1c6.2,0,6,0,6.2-0.3c0.1-0.3,0-0.7-0.2-0.8C21.3,21.8,9.9,21.8,9.7,22L9.7,22z">
            </path>
        </symbol>
        <symbol id="icon-hair" viewBox="0 0 40 32">
            <path
                d="M24.7,29.5l1.3-0.6c3.4-1.9,5.8-5.3,6.2-9.3l0-0.1h0.7c1.7,0,3.2-1.4,3.2-3.2c0-1.7-1.4-3.2-3.2-3.2h-0.6c0-5.9-4.8-10.7-10.7-10.7H11.4c-0.5,0-1-0.3-1.2-0.8l0,0c-0.1-0.3-0.4-0.4-0.7-0.4h0c-2.4,0.3-4.1,2.6-3.8,5c0,0,0,0,0,0.1l0,0c0.3,1.6,1.4,3,3,3.5l0,0c-0.3,1.1-0.5,2.3-0.5,3.4v0H7.6c-1.7,0-3.2,1.4-3.2,3.2s1.4,3.2,3.2,3.2h0.7c0.4,3.9,2.7,7.4,6.2,9.3l0.1,0l1.3,0.6H24.7z M32.9,14.5c1,0,1.9,0.8,1.9,1.9s-0.8,1.9-1.9,1.9h-0.6v-3.8L32.9,14.5z M7,6.2C6.8,4.6,7.7,3.1,9.2,2.7l0,0c0.5,0.7,1.3,1.1,2.1,1.1h10.1c5.2,0,9.4,4.2,9.5,9.4v0c-0.2,0-0.4-0.1-0.5-0.2l0,0c-0.1,0-0.1-0.1-0.2-0.1c-0.1-0.1-0.2-0.1-0.4-0.2l0,0c-0.1,0-0.2-0.1-0.2-0.1l0,0c-0.1-0.1-0.2-0.1-0.3-0.2l0,0l-0.2-0.2c-0.1-0.1-0.1-0.2-0.2-0.2l0,0c0-0.1-0.1-0.1-0.1-0.2l0,0c-0.1-0.1-0.1-0.2-0.2-0.3l0,0c0-0.1-0.1-0.1-0.1-0.2c0-0.1-0.1-0.2-0.1-0.3l0,0c0-0.1,0-0.1-0.1-0.2c0-0.2-0.1-0.4-0.1-0.6V9.5c0-0.3-0.3-0.6-0.6-0.6H10.2c-0.2,0-0.4,0-0.6-0.1l0,0C8.3,8.6,7.2,7.5,7,6.2L7,6.2L7,6.2z M7.6,18.3c-1,0-1.9-0.8-1.9-1.9c0-1,0.8-1.9,1.9-1.9h0.6v3.8L7.6,18.3z M9.5,18.3v-5.1c0-1.1,0.2-2.2,0.5-3.2l0,0.1h17.2v0.6c0,0.1,0,0.2,0,0.3l0,0l0,0.2c0,0.1,0,0.2,0.1,0.2l0.1,0.2l0.1,0.2c0,0.1,0.1,0.1,0.1,0.2l0.1,0.2c0,0.1,0.1,0.1,0.1,0.2s0.1,0.1,0.1,0.2l0.1,0.2c0,0.1,0.1,0.1,0.1,0.2l0,0l0.1,0.1c0.1,0.1,0.1,0.1,0.2,0.2l0,0l0.1,0.1l0.2,0.2l0.1,0.1c0.1,0.1,0.2,0.1,0.2,0.2l0.1,0.1c0.1,0.1,0.2,0.1,0.3,0.2l0,0c0,0,0.1,0,0.1,0.1l0,0l0.3,0.1l0.2,0.1l0.2,0.1l0.2,0.1l0.2,0.1l0.2,0h0.1v3.9c0,4.1-2.3,7.8-6,9.6l-0.1,0c-0.3,0.2-0.7,0.3-1,0.4l-0.1,0c-0.3,0.1-0.7,0.2-1,0.3l-0.1,0h-0.1C21.9,28.9,21,29,20.2,29s-1.7-0.1-2.5-0.3l0.1,0h-0.1c-0.4-0.1-0.7-0.2-1.1-0.3l-0.1,0c-0.4-0.1-0.7-0.3-1.1-0.5l0.1,0C11.9,26.2,9.5,22.6,9.5,18.3L9.5,18.3L9.5,18.3L9.5,18.3z M15.8,29.5l0.1,0c0.3,0.1,0.6,0.2,0.9,0.3l0.2,0.1c0.3,0.1,0.6,0.2,0.9,0.2l0.3,0c0.3,0,0.6,0.1,0.9,0.1h0.3c0.3,0,0.6,0,0.9,0s0.6,0,0.9,0h0.3c0.3,0,0.6-0.1,0.9-0.1l0.3,0c0.3-0.1,0.6-0.1,0.9-0.2l0.2-0.1c0.3-0.1,0.6-0.2,0.9-0.3l0.1,0H15.8z M17.1,16.4c0,0.7-0.6,1.3-1.3,1.3c-0.7,0-1.3-0.6-1.3-1.3c0,0,0,0,0,0c0-0.7,0.6-1.3,1.3-1.3C16.5,15.2,17.1,15.7,17.1,16.4z M25.9,16.4c0,0.7-0.6,1.3-1.3,1.3c-0.7,0-1.3-0.6-1.3-1.3c0,0,0,0,0,0c0-0.7,0.6-1.3,1.3-1.3C25.4,15.2,25.9,15.7,25.9,16.4z">
            </path>
        </symbol>
        <symbol id="icon-bald" viewBox="0 0 40 32">
            <path
                d="M17.4,16.7c0,0.7-0.5,1.3-1.3,1.3c-0.7,0-1.3-0.5-1.3-1.3c0,0,0,0,0-0.1c0-0.7,0.6-1.3,1.3-1.3C16.8,15.5,17.4,16.1,17.4,16.7z M26.4,16.7c0,0.7-0.5,1.3-1.3,1.3c-0.7,0-1.3-0.5-1.3-1.3c0,0,0,0,0-0.1c0-0.7,0.6-1.3,1.3-1.3C25.8,15.5,26.4,16.1,26.4,16.7z M27.8,9.3L29,8.7c-0.8-1.4-2-2.7-3.5-3.5l0,0l-0.6,1.1C26,7,27.1,8,27.8,9.3L27.8,9.3L27.8,9.3z M24.2,4.6c-0.5-0.2-1-0.3-1.4-0.5l-0.1,0l-0.3,1.3c0.5,0.1,0.9,0.3,1.3,0.4l-0.1,0L24.2,4.6z M25.1,30l1.3-0.6c3.5-1.9,5.9-5.4,6.4-9.4l0-0.1h0.7c1.8,0,3.2-1.4,3.2-3.2s-1.4-3.2-3.2-3.2h-0.6c0-6.8-5.5-12.2-12.2-12.2S8.4,6.8,8.4,13.5H7.7c-1.8,0-3.2,1.4-3.2,3.2S5.9,20,7.7,20h0.7c0.4,4,2.8,7.5,6.3,9.4l0.1,0l1.3,0.6L25.1,30z M32.8,14.8h0.6c1.1,0,1.9,0.9,1.9,1.9s-0.9,1.9-1.9,1.9l0,0h-0.6V14.8z M8.4,18.7H7.7c-1.1,0-1.9-0.9-1.9-1.9s0.9-1.9,1.9-1.9c0,0,0,0,0,0h0.6V18.7z M16.1,30c0,0,0.1,0,0.1,0l0,0c0.2,0.1,0.3,0.1,0.5,0.2l0.4,0.1h0.1c0.3,0.1,0.5,0.1,0.8,0.2l0.3,0.1h0c0.3,0.1,0.6,0.1,1,0.1h0.2c0.8,0.1,1.5,0.1,2.3,0l0,0h0.2c0.3,0,0.6-0.1,1-0.1h0l0.3-0.1c0.3-0.1,0.5-0.1,0.8-0.2h0.1c0.1,0,0.3-0.1,0.4-0.1l0.6-0.2H16.1z M25.1,28.6l-0.5,0.2c-0.1,0.1-0.3,0.1-0.5,0.2s-0.5,0.2-0.8,0.2L23,29.3c-0.3,0.1-0.6,0.1-0.9,0.2c-0.1,0-0.2,0-0.3,0c-0.4,0-0.8,0.1-1.2,0.1s-0.8,0-1.3-0.1l0,0c-0.1,0-0.2,0-0.3,0c-0.3,0-0.6-0.1-0.9-0.2l-0.4-0.1c-0.3-0.1-0.5-0.1-0.8-0.2s-0.3-0.1-0.5-0.2l-0.5-0.2l-1.3-0.7c-3.1-2-5.1-5.4-5.1-9.3v-5.1c0-6,4.9-10.9,10.9-10.9s10.9,4.9,10.9,10.9v5.1c0,3.8-1.9,7.2-5.1,9.2l0,0L25.1,28.6z">
            </path>
        </symbol>
        <symbol id="icon-external-link" viewBox="0 0 24 24">
            <path
                d="M17 13v6c0 0.276-0.111 0.525-0.293 0.707s-0.431 0.293-0.707 0.293h-11c-0.276 0-0.525-0.111-0.707-0.293s-0.293-0.431-0.293-0.707v-11c0-0.276 0.111-0.525 0.293-0.707s0.431-0.293 0.707-0.293h6c0.552 0 1-0.448 1-1s-0.448-1-1-1h-6c-0.828 0-1.58 0.337-2.121 0.879s-0.879 1.293-0.879 2.121v11c0 0.828 0.337 1.58 0.879 2.121s1.293 0.879 2.121 0.879h11c0.828 0 1.58-0.337 2.121-0.879s0.879-1.293 0.879-2.121v-6c0-0.552-0.448-1-1-1s-1 0.448-1 1zM10.707 14.707l9.293-9.293v3.586c0 0.552 0.448 1 1 1s1-0.448 1-1v-6c0-0.136-0.027-0.265-0.076-0.383s-0.121-0.228-0.216-0.323c-0.001-0.001-0.001-0.001-0.002-0.002-0.092-0.092-0.202-0.166-0.323-0.216-0.118-0.049-0.247-0.076-0.383-0.076h-6c-0.552 0-1 0.448-1 1s0.448 1 1 1h3.586l-9.293 9.293c-0.391 0.391-0.391 1.024 0 1.414s1.024 0.391 1.414 0z">
            </path>
        </symbol>
        <symbol id="icon-zoom-in" viewBox="0 0 24 24">
            <path
                d="M16.041 15.856c-0.034 0.026-0.067 0.055-0.099 0.087s-0.060 0.064-0.087 0.099c-1.258 1.213-2.969 1.958-4.855 1.958-1.933 0-3.682-0.782-4.95-2.050s-2.050-3.017-2.050-4.95 0.782-3.682 2.050-4.95 3.017-2.050 4.95-2.050 3.682 0.782 4.95 2.050 2.050 3.017 2.050 4.95c0 1.886-0.745 3.597-1.959 4.856zM21.707 20.293l-3.675-3.675c1.231-1.54 1.968-3.493 1.968-5.618 0-2.485-1.008-4.736-2.636-6.364s-3.879-2.636-6.364-2.636-4.736 1.008-6.364 2.636-2.636 3.879-2.636 6.364 1.008 4.736 2.636 6.364 3.879 2.636 6.364 2.636c2.125 0 4.078-0.737 5.618-1.968l3.675 3.675c0.391 0.391 1.024 0.391 1.414 0s0.391-1.024 0-1.414zM8 12h2v2c0 0.552 0.448 1 1 1s1-0.448 1-1v-2h2c0.552 0 1-0.448 1-1s-0.448-1-1-1h-2v-2c0-0.552-0.448-1-1-1s-1 0.448-1 1v2h-2c-0.552 0-1 0.448-1 1s0.448 1 1 1z">
            </path>
        </symbol>
        <symbol id="icon-mobile-menu" viewBox="0 0 24 24">
            <path
                d="M3 13h18c0.552 0 1-0.448 1-1s-0.448-1-1-1h-18c-0.552 0-1 0.448-1 1s0.448 1 1 1zM3 7h18c0.552 0 1-0.448 1-1s-0.448-1-1-1h-18c-0.552 0-1 0.448-1 1s0.448 1 1 1zM3 19h18c0.552 0 1-0.448 1-1s-0.448-1-1-1h-18c-0.552 0-1 0.448-1 1s0.448 1 1 1z">
            </path>
        </symbol>
    </defs>
</svg>